<svg version="1" xmlns="http://www.w3.org/2000/svg" width="666.667" height="666.667" viewBox="0 0 500.000000 500.000000"><path d="M4.4 1.8c-1.2.9-2.7 2.7-3.3 3.9C.3 7.3 0 73.8 0 250.7c0 228.5.1 242.9 1.8 244.9.9 1.2 2.7 2.7 3.9 3.3 1.6.8 68.1 1.1 245 1.1 228.5 0 242.9-.1 244.9-1.8 1.2-.9 2.7-2.7 3.3-3.9.8-1.6 1.1-68.1 1.1-245 0-228.5-.1-242.9-1.8-244.9-.9-1.2-2.7-2.7-3.9-3.3-1.6-.8-68.1-1.1-245-1.1C20.8 0 6.4.1 4.4 1.8zM302 257v14h-29v151h-28V271h-28v-28h85v14zm41 61.5V394h46v28h-74V243h28v75.5zm79.9 78.2c4.5 3.4 6.4 6.9 6.4 11.8 0 11.6-13.5 18.2-22.7 11.2-6-4.6-7.2-14.1-2.6-20 4.5-5.7 13.3-7.1 18.9-3z"/></svg>